# xmcd CD database file
#
# Track frame offsets:
#	150
#	23035
#	72068
#	96948
#	119938
#	164810
#	184828
#	235428
#	262243
#	277985
#	302505
#
# Disc length: 4266 seconds
#
# Revision: 5
# Processed by: cddbd v1.5.2PL0 Copyright (c) Steve Scherf et al.
# Submitted via: CDex 2.14
#
DISCID=a410a80b
DTITLE=Tommy Castro Band - No Foolin'
DYEAR=1993
DGENRE=Blues
TTITLE0=Mammer-Jammer
TTITLE1=Sweet Little Angel
TTITLE2=Can't Get Next To You
TTITLE3=You Got Somethin'
TTITLE4=Let Me Love You Baby
TTITLE5=Me And My Guitar
TTITLE6=Stone Crazy
TTITLE7=Woke Up This Mornin'
TTITLE8=Midnight Mover
TTITLE9=All Night Long
TTITLE10=Clemency
EXTD=YEAR: 1993
EXTT0=
EXTT1=
EXTT2=
EXTT3=
EXTT4=
EXTT5=
EXTT6=
EXTT7=
EXTT8=
EXTT9=
EXTT10=
PLAYORDER=
